<svg width="24" height="24" viewBox="0 0 24 24" fill="none" xmlns="http://www.w3.org/2000/svg">
<path d="M18.5364 13.4289C18.478 13.5067 18.2057 13.8372 17.9918 14.051L17.875 14.1677C16.2412 15.9368 12.1761 18.6002 10.1143 19.4557C10.1143 19.4751 8.88894 19.9806 8.30543 20H8.22763C7.33291 20 6.49654 19.4945 6.06863 18.678C5.83522 18.2309 5.62127 16.9283 5.60182 16.9089C5.42676 15.7424 5.31006 13.9558 5.31006 11.9903C5.31006 9.92953 5.42676 8.06318 5.64072 6.91616C5.64072 6.89672 5.85467 5.8469 5.99082 5.49696C6.20478 4.99149 6.59379 4.56379 7.08005 4.29162C7.46906 4.09721 7.87752 4 8.30543 4C8.75279 4.01944 9.58916 4.313 9.91982 4.44714C12.0983 5.30255 16.2607 8.10207 17.8556 9.81288C18.1279 10.0851 18.4197 10.4156 18.4975 10.4933C18.8281 10.921 19.0032 11.4459 19.0032 12.0117C19.0032 12.5152 18.8476 13.0207 18.5364 13.4289" fill="#364053"/>
</svg>
