<svg width="71" height="71" viewBox="0 0 71 71" fill="none" xmlns="http://www.w3.org/2000/svg">
<rect x="0.8" y="0.8" width="69.4" height="69.4" rx="34.7" stroke="#E1E2E5" stroke-width="1.6" stroke-dasharray="8 8"/>
<path fill-rule="evenodd" clip-rule="evenodd" d="M38.9381 35.9983C38.9381 34.2614 37.5297 32.853 35.7928 32.853C34.056 32.853 32.6476 34.2614 32.6476 35.9983C32.6476 37.7351 34.056 39.1436 35.7928 39.1436C37.5297 39.1436 38.9381 37.7351 38.9381 35.9983Z" stroke="#130F26" stroke-width="1.5" stroke-linecap="round" stroke-linejoin="round"/>
<path fill-rule="evenodd" clip-rule="evenodd" d="M35.7925 43.7002C43.8378 43.7002 44.7957 41.2897 44.7957 36.0665C44.7957 32.4055 44.3115 30.4465 41.262 29.6044C40.982 29.516 40.6715 29.3476 40.4199 29.0707C40.0136 28.6255 39.7167 27.2581 38.7357 26.8444C37.7546 26.4318 33.8146 26.4507 32.8494 26.8444C31.8852 27.2391 31.5715 28.6255 31.1652 29.0707C30.9136 29.3476 30.6041 29.516 30.3231 29.6044C27.2736 30.4465 26.7894 32.4055 26.7894 36.0665C26.7894 41.2897 27.7473 43.7002 35.7925 43.7002Z" stroke="#130F26" stroke-width="1.5" stroke-linecap="round" stroke-linejoin="round"/>
<path d="M40.7045 32.5H40.7135" stroke="#130F26" stroke-width="1.5" stroke-linecap="round" stroke-linejoin="round"/>
</svg>
